#!OML:ASF F:\VICON\USERDATA\INSTALL\rory3\rory3.ASF
:FULLY-SPECIFIED
:DEGREES
455
root -2.23187 17.86 2.63144 -2.08555 -19.8935 -2.70307
lowerback 9.79712 0.397307 -1.67672
upperback 3.97618 0.318249 -1.2668
thorax -1.36629 0.141096 -0.399623
lowerneck -1.61627 -7.45627 -9.77267
upperneck 5.24131 -10.5806 14.4043
head 3.11374 -5.12062 5.54231
rclavicle -1.98785e-015 1.98785e-014
rhumerus 50.5366 -6.40031 -54.0063
rradius 22.5316
rwrist 33.7373
rhand -21.597 -7.49874
rfingers 7.12502
rthumb 4.79795 -37.4244
lclavicle -1.98785e-015 1.98785e-014
lhumerus -19.4861 -25.0609 87.692
lradius 68.5043
lwrist -16.4018
lhand -2.41247 31.0106
lfingers 7.12502
lthumb 23.2777 59.6235
rfemur -26.0981 8.0873 15.1852
rtibia 39.8536
rfoot -9.03542 -9.55408
rtoes -9.12955
lfemur -13.8977 -0.83997 -7.09976
ltibia 55.8011
lfoot -14.8614 2.26245
ltoes -22.8856
456
root -2.30587 17.8728 2.65557 -2.16613 -19.5723 -2.6529
lowerback 9.79727 0.365052 -1.62872
upperback 3.8916 0.279841 -1.24804
thorax -1.45372 0.123422 -0.403341
lowerneck -1.45697 -7.46993 -9.75118
upperneck 5.14178 -10.5894 14.2728
head 3.05031 -5.13569 5.50491
rclavicle 8.74653e-015 1.51076e-014
rhumerus 50.3762 -6.57664 -54.0663
rradius 22.5682
rwrist 33.9088
rhand -21.2732 -7.54975
rfingers 7.12502
rthumb 5.11055 -37.4681
lclavicle 8.74653e-015 1.51076e-014
lhumerus -19.633 -25.1029 87.7753
lradius 68.4984
lwrist -16.2843
lhand -1.24193 30.5456
lfingers 7.12502
lthumb 24.4003 59.0119
rfemur -25.8378 7.70672 15.3964
rtibia 39.9141
rfoot -9.25715 -9.5566
rtoes -9.09267
lfemur -14.2264 -0.854225 -6.94128
ltibia 56.3796
lfoot -13.8646 2.3209
ltoes -21.766
457
root -2.37624 17.8854 2.68637 -2.31973 -19.429 -2.66202
lowerback 9.73664 0.35702 -1.51201
upperback 3.9167 0.283337 -1.19359
thorax -1.39437 0.125491 -0.412594
lowerneck -1.51436 -7.50844 -9.689
upperneck 5.17531 -10.6223 14.0143
head 3.05627 -5.15332 5.40992
rclavicle 6.36111e-014 -1.11319e-014
rhumerus 50.2733 -6.61938 -53.9281
rradius 22.7089
rwrist 33.9824
rhand -21.3143 -7.71817
rfingers 7.12502
rthumb 5.07087 -37.6375
lclavicle 6.36111e-014 -1.11319e-014
lhumerus -19.691 -24.9908 87.8728
lradius 68.4582
lwrist -16.315
lhand -0.448443 30.1676
lfingers 7.12502
lthumb 25.1608 58.5293
rfemur -25.446 7.40252 15.6851
rtibia 39.9269
rfoot -9.38395 -9.47133
rtoes -9.52778
lfemur -14.352 -0.817379 -6.75826
ltibia 56.9362
lfoot -13.0024 2.45489
ltoes -19.3028
458
root -2.44586 17.8982 2.71472 -2.4058 -19.3445 -2.76792
lowerback 9.59445 0.348621 -1.27623
upperback 3.96546 0.298568 -1.15132
thorax -1.26524 0.134221 -0.502012
lowerneck -1.45947 -7.53988 -9.61624
upperneck 5.03171 -10.6393 13.8034
head 2.99132 -5.1698 5.33584
rclavicle -7.25564e-015 -2.54444e-014
rhumerus 50.1481 -6.56366 -53.6465
rradius 22.8803
rwrist 33.653
rhand -21.5712 -8.02552
rfingers 7.12502
rthumb 4.82281 -37.9506
lclavicle -7.25564e-015 -2.54444e-014
lhumerus -19.7275 -24.9167 87.8778
lradius 68.4271
lwrist -16.4006
lhand -0.714772 30.0616
lfingers 7.12502
lthumb 24.9056 58.4589
rfemur -25.0997 7.22969 16.0679
rtibia 39.8998
rfoot -9.46276 -9.48861
rtoes -9.58908
lfemur -14.4969 -0.660395 -6.45014
ltibia 57.4482
lfoot -12.2327 2.60351
ltoes -16.9097
459
root -2.51664 17.9109 2.73398 -2.42217 -19.2114 -2.97635
lowerback 9.60208 0.361308 -1.02931
upperback 3.95466 0.339296 -1.0625
thorax -1.27996 0.156325 -0.553428
lowerneck -1.38151 -7.55054 -9.61137
upperneck 4.84323 -10.6383 13.7857
head 2.92149 -5.17605 5.33511
rclavicle -4.58199e-014 1.98785e-014
rhumerus 49.8643 -6.53407 -53.2905
rradius 23.1432
rwrist 33.1601
rhand -21.838 -8.57287
rfingers 7.12502
rthumb 4.56518 -38.5037
lclavicle -4.58199e-014 1.98785e-014
lhumerus -19.8725 -24.8579 87.9422
lradius 68.4926
lwrist -16.4541
lhand -1.66026 30.2662
lfingers 7.12502
lthumb 23.9992 58.786
rfemur -24.8107 7.13547 16.5485
rtibia 39.8399
rfoot -9.52584 -9.64509
rtoes -8.97126
lfemur -14.743 -0.538174 -6.01642
ltibia 57.9442
lfoot -11.4276 2.71692
ltoes -15.6571
460
root -2.58319 17.9284 2.7571 -2.51908 -19.0373 -3.01449
lowerback 9.6652 0.362405 -0.980274
upperback 3.89345 0.345619 -0.980774
thorax -1.37821 0.159958 -0.497911
lowerneck -1.27273 -7.51392 -9.69343
upperneck 4.78854 -10.5927 13.8521
head 2.88969 -5.15851 5.37687
rclavicle 4.37326e-015 8.74653e-015
rhumerus 49.583 -6.62249 -53.3044
rradius 23.3725
rwrist 33.3927
rhand -21.7661 -8.47378
rfingers 7.12502
rthumb 4.63466 -38.4031
lclavicle 4.37326e-015 8.74653e-015
lhumerus -20.1205 -24.8242 88.101
lradius 68.5607
lwrist -16.3602
lhand -1.96745 30.8768
lfingers 7.12502
lthumb 23.7046 59.435
rfemur -24.4762 6.95741 16.8305
rtibia 39.7868
rfoot -9.54868 -9.72684
rtoes -8.15361
lfemur -14.9502 -0.517994 -5.83394
ltibia 58.4202
lfoot -10.6582 3.038
ltoes -14.8075
461
root -2.64506 17.9421 2.78418 -2.56964 -18.9448 -3.12437
lowerback 9.59631 0.339889 -0.800453
upperback 3.88475 0.335294 -0.890398
thorax -1.34909 0.155814 -0.504155
lowerneck -1.27136 -7.47121 -9.77158
upperneck 4.78114 -10.5323 13.8677
head 2.88495 -5.12963 5.39834
rclavicle 6.17226e-014 1.35174e-014
rhumerus 49.4071 -6.73629 -53.4747
rradius 23.6361
rwrist 33.5394
rhand -21.0593 -7.93439
rfingers 7.12502
rthumb 5.31707 -37.8477
lclavicle 6.17226e-014 1.35174e-014
lhumerus -20.251 -24.7678 88.2126
lradius 68.5603
lwrist -16.2285
lhand -2.0784 31.066
lfingers 7.12502
lthumb 23.5982 59.638
rfemur -24.1687 6.81478 17.1712
rtibia 39.7635
rfoot -9.67782 -9.73283
rtoes -7.98911
lfemur -15.1265 -0.3462 -5.61239
ltibia 58.9084
lfoot -9.85033 3.59534
ltoes -15.1448
462
root -2.70421 17.9472 2.7999 -2.49929 -18.9705 -3.37758
lowerback 9.63454 0.36238 -0.566513
upperback 3.79968 0.389302 -0.715182
thorax -1.45775 0.183936 -0.461075
lowerneck -1.14973 -7.44344 -9.86914
upperneck 4.6376 -10.4816 13.8204
head 2.81878 -5.11407 5.40935
rclavicle 1.36167e-014 -2.38542e-015
rhumerus 49.1372 -6.73365 -53.4448
rradius 23.9641
rwrist 33.2984
rhand -20.0216 -7.10318
rfingers 7.12502
rthumb 6.31898 -36.9889
lclavicle 1.36167e-014 -2.38542e-015
lhumerus -20.4749 -24.6334 88.4353
lradius 68.5409
lwrist -16.2781
lhand -2.20408 30.8922
lfingers 7.12502
lthumb 23.4776 59.4797
rfemur -24.0399 6.79832 17.6621
rtibia 39.7678
rfoot -9.79171 -9.76247
rtoes -7.8221
lfemur -15.439 0.0555382 -5.19946
ltibia 59.4101
lfoot -8.96937 4.14437
ltoes -16.7085
463
root -2.76043 17.9554 2.8154 -2.48088 -18.9054 -3.41554
lowerback 9.61581 0.384311 -0.468027
upperback 3.73526 0.428915 -0.656517
thorax -1.51375 0.204371 -0.46025
lowerneck -0.955861 -7.41016 -9.86213
upperneck 4.41909 -10.4298 13.8446
head 2.71685 -5.09907 5.42963
rclavicle 1.98785e-016 7.95139e-015
rhumerus 48.7401 -6.71061 -53.4024
rradius 24.3414
rwrist 33.3982
rhand -19.888 -6.42473
rfingers 7.12502
rthumb 6.44797 -36.3066
lclavicle 1.98785e-016 7.95139e-015
lhumerus -20.6999 -24.6142 88.5868
lradius 68.525
lwrist -16.3199
lhand -1.94476 30.7512
lfingers 7.12502
lthumb 23.7264 59.3067
rfemur -23.9281 6.66949 17.912
rtibia 39.796
rfoot -9.91051 -9.76698
rtoes -7.91835
lfemur -15.7707 0.331985 -5.06077
ltibia 59.8665
lfoot -8.31361 4.59959
ltoes -17.4613
